<mxfile host="app.diagrams.net" modified="2021-06-23T03:33:23.346Z" agent="5.0 (Windows NT 10.0; Win64; x64) AppleWebKit/537.36 (KHTML, like Gecko) Chrome/91.0.4472.106 Safari/537.36" etag="GwUSiXyWzkvTX5dt1IXT" version="14.8.0" type="github">
  <diagram id="vxIsBXi6-U7dhx1XqKku" name="Page-1">
    <mxGraphModel dx="1240" dy="655" grid="1" gridSize="10" guides="1" tooltips="1" connect="1" arrows="1" fold="1" page="1" pageScale="1" pageWidth="827" pageHeight="1169" math="0" shadow="0">
      <root>
        <mxCell id="0" />
        <mxCell id="1" parent="0" />
        <mxCell id="QleytlypI_foX-6YYafD-23" value="" style="group;fillColor=#fff2cc;strokeColor=#d6b656;" vertex="1" connectable="0" parent="1">
          <mxGeometry x="477" y="380" width="316" height="140" as="geometry" />
        </mxCell>
        <mxCell id="QleytlypI_foX-6YYafD-24" value="" style="rounded=1;whiteSpace=wrap;html=1;shadow=0;arcSize=5;strokeColor=#d6b656;fillColor=#FFF9E6;" vertex="1" parent="QleytlypI_foX-6YYafD-23">
          <mxGeometry width="316" height="140" as="geometry" />
        </mxCell>
        <mxCell id="QleytlypI_foX-6YYafD-25" value="&lt;span style=&quot;font-weight: 700 ; background-color: rgb(248 , 249 , 250)&quot;&gt;&lt;font style=&quot;font-size: 10px&quot;&gt;TERMINAL A&lt;/font&gt;&lt;/span&gt;" style="shape=image;html=1;verticalAlign=top;verticalLabelPosition=bottom;labelBackgroundColor=#ffffff;imageAspect=0;aspect=fixed;image=https://cdn4.iconfinder.com/data/icons/computer-and-technologies-1/800/pc-128.png;" vertex="1" parent="QleytlypI_foX-6YYafD-23">
          <mxGeometry x="31.6" y="16.470588235294116" width="72.47058823529412" height="72.47058823529412" as="geometry" />
        </mxCell>
        <mxCell id="QleytlypI_foX-6YYafD-26" value="&lt;span style=&quot;font-weight: 700 ; background-color: rgb(248 , 249 , 250)&quot;&gt;&lt;font style=&quot;font-size: 10px&quot;&gt;TERMINAL B&lt;/font&gt;&lt;/span&gt;" style="shape=image;html=1;verticalAlign=top;verticalLabelPosition=bottom;labelBackgroundColor=#ffffff;imageAspect=0;aspect=fixed;image=https://cdn4.iconfinder.com/data/icons/computer-and-technologies-1/800/pc-128.png;" vertex="1" parent="QleytlypI_foX-6YYafD-23">
          <mxGeometry x="119.37777777777778" y="16.470588235294116" width="72.47058823529412" height="72.47058823529412" as="geometry" />
        </mxCell>
        <mxCell id="QleytlypI_foX-6YYafD-27" value="&lt;span style=&quot;font-weight: 700 ; background-color: rgb(248 , 249 , 250)&quot;&gt;&lt;font style=&quot;font-size: 10px&quot;&gt;TERMINAL N...&lt;/font&gt;&lt;/span&gt;" style="shape=image;html=1;verticalAlign=top;verticalLabelPosition=bottom;labelBackgroundColor=#ffffff;imageAspect=0;aspect=fixed;image=https://cdn4.iconfinder.com/data/icons/computer-and-technologies-1/800/pc-128.png;" vertex="1" parent="QleytlypI_foX-6YYafD-23">
          <mxGeometry x="207.15555555555557" y="16.470588235294116" width="72.47058823529412" height="72.47058823529412" as="geometry" />
        </mxCell>
        <mxCell id="QleytlypI_foX-6YYafD-28" value="MATRIZ" style="text;html=1;strokeColor=none;fillColor=none;align=center;verticalAlign=middle;whiteSpace=wrap;rounded=0;shadow=0;fontStyle=1;fontSize=13;labelBorderColor=none;labelBackgroundColor=#ffffff;" vertex="1" parent="QleytlypI_foX-6YYafD-23">
          <mxGeometry x="116.44999999999999" y="120" width="78.33" height="16.47" as="geometry" />
        </mxCell>
        <mxCell id="QleytlypI_foX-6YYafD-47" style="edgeStyle=orthogonalEdgeStyle;rounded=0;orthogonalLoop=1;jettySize=auto;html=1;exitX=0.017;exitY=0.502;exitDx=0;exitDy=0;exitPerimeter=0;dashed=1;fontSize=13;fontColor=#000000;startArrow=none;startFill=0;endArrow=none;endFill=0;strokeWidth=1;" edge="1" parent="1" source="QleytlypI_foX-6YYafD-96" target="QleytlypI_foX-6YYafD-44">
          <mxGeometry relative="1" as="geometry">
            <mxPoint x="343" y="300" as="sourcePoint" />
          </mxGeometry>
        </mxCell>
        <mxCell id="QleytlypI_foX-6YYafD-32" style="edgeStyle=orthogonalEdgeStyle;rounded=0;orthogonalLoop=1;jettySize=auto;html=1;exitX=0;exitY=0.5;exitDx=0;exitDy=0;fontSize=13;fontColor=#000000;dashed=1;endArrow=none;endFill=0;strokeWidth=1;" edge="1" parent="1" source="QleytlypI_foX-6YYafD-6">
          <mxGeometry relative="1" as="geometry">
            <mxPoint x="378" y="280" as="targetPoint" />
          </mxGeometry>
        </mxCell>
        <mxCell id="QleytlypI_foX-6YYafD-35" style="edgeStyle=orthogonalEdgeStyle;rounded=0;orthogonalLoop=1;jettySize=auto;html=1;exitX=0;exitY=0.5;exitDx=0;exitDy=0;fontSize=13;fontColor=#000000;startArrow=none;startFill=0;dashed=1;endArrow=none;endFill=0;strokeWidth=1;" edge="1" parent="1" source="QleytlypI_foX-6YYafD-24" target="QleytlypI_foX-6YYafD-96">
          <mxGeometry relative="1" as="geometry">
            <mxPoint x="378" y="360" as="targetPoint" />
          </mxGeometry>
        </mxCell>
        <mxCell id="QleytlypI_foX-6YYafD-44" value="&lt;b&gt;NUVEM&lt;/b&gt;" style="points=[[0,0],[0.25,0],[0.5,0],[0.75,0],[1,0],[1,0.25],[1,0.5],[1,0.75],[1,1],[0.75,1],[0.5,1],[0.25,1],[0,1],[0,0.75],[0,0.5],[0,0.25]];outlineConnect=0;gradientColor=none;html=1;whiteSpace=wrap;fontSize=12;fontStyle=0;shape=mxgraph.aws4.group;grIcon=mxgraph.aws4.group_aws_cloud;verticalAlign=top;align=left;spacingLeft=30;fontColor=#232F3E;dashed=0;shadow=0;labelBackgroundColor=#FFFFFF;labelBorderColor=none;fillColor=none;strokeColor=#536E94;" vertex="1" parent="1">
          <mxGeometry x="33" y="121.25" width="290" height="357.5" as="geometry" />
        </mxCell>
        <mxCell id="QleytlypI_foX-6YYafD-49" value="" style="rounded=1;whiteSpace=wrap;html=1;shadow=0;labelBackgroundColor=#FFFFFF;fontSize=13;fontColor=#333333;strokeColor=#666666;fillColor=#f5f5f5;" vertex="1" parent="1">
          <mxGeometry x="53" y="181" width="250" height="70" as="geometry" />
        </mxCell>
        <mxCell id="QleytlypI_foX-6YYafD-48" value="" style="rounded=1;whiteSpace=wrap;html=1;shadow=0;labelBackgroundColor=#FFFFFF;fontSize=13;fontColor=#000000;strokeColor=#A9C4EB;fillColor=#B5C1D1;" vertex="1" parent="1">
          <mxGeometry x="148" y="186" width="60" height="60" as="geometry" />
        </mxCell>
        <mxCell id="QleytlypI_foX-6YYafD-52" value="BANCO DE DADOS" style="text;html=1;strokeColor=none;fillColor=none;align=center;verticalAlign=middle;whiteSpace=wrap;rounded=0;shadow=0;labelBackgroundColor=#FFFFFF;fontSize=12;fontColor=#000000;fontStyle=1" vertex="1" parent="1">
          <mxGeometry x="43" y="251" width="140" height="20" as="geometry" />
        </mxCell>
        <mxCell id="QleytlypI_foX-6YYafD-57" style="edgeStyle=orthogonalEdgeStyle;rounded=0;orthogonalLoop=1;jettySize=auto;html=1;exitX=0.5;exitY=0;exitDx=0;exitDy=0;entryX=0.5;entryY=1;entryDx=0;entryDy=0;fontSize=12;fontColor=#000000;startArrow=none;startFill=0;endArrow=none;endFill=0;strokeWidth=2;dashed=1;" edge="1" parent="1" source="QleytlypI_foX-6YYafD-53" target="QleytlypI_foX-6YYafD-48">
          <mxGeometry relative="1" as="geometry" />
        </mxCell>
        <mxCell id="QleytlypI_foX-6YYafD-53" value="" style="rounded=1;whiteSpace=wrap;html=1;shadow=0;labelBackgroundColor=#FFFFFF;fontSize=13;fontColor=#333333;strokeColor=#666666;fillColor=#f5f5f5;" vertex="1" parent="1">
          <mxGeometry x="53" y="329" width="250" height="70" as="geometry" />
        </mxCell>
        <mxCell id="QleytlypI_foX-6YYafD-54" value="&lt;span style=&quot;background-color: rgb(181 , 193 , 209)&quot;&gt;VM&lt;/span&gt;" style="rounded=1;whiteSpace=wrap;html=1;shadow=0;labelBackgroundColor=#FFFFFF;fontSize=13;fontColor=#000000;strokeColor=#A9C4EB;fillColor=#B5C1D1;" vertex="1" parent="1">
          <mxGeometry x="78" y="334" width="60" height="60" as="geometry" />
        </mxCell>
        <mxCell id="QleytlypI_foX-6YYafD-55" value="APLICAÇÃO" style="text;html=1;strokeColor=none;fillColor=none;align=center;verticalAlign=middle;whiteSpace=wrap;rounded=0;shadow=0;labelBackgroundColor=#FFFFFF;fontSize=12;fontColor=#000000;fontStyle=1" vertex="1" parent="1">
          <mxGeometry x="23" y="399" width="140" height="20" as="geometry" />
        </mxCell>
        <mxCell id="QleytlypI_foX-6YYafD-56" value="" style="rounded=1;whiteSpace=wrap;html=1;shadow=0;labelBackgroundColor=#FFFFFF;fontSize=13;fillColor=#f5f5f5;strokeColor=#666666;fontColor=#333333;dashed=1;strokeWidth=2;dashPattern=1 1;" vertex="1" parent="1">
          <mxGeometry x="148" y="334" width="60" height="60" as="geometry" />
        </mxCell>
        <mxCell id="QleytlypI_foX-6YYafD-61" value="&lt;b&gt;&lt;font style=&quot;font-size: 10px&quot;&gt;BACKUP&amp;nbsp;&lt;/font&gt;&lt;/b&gt;" style="shape=image;html=1;verticalAlign=top;verticalLabelPosition=bottom;labelBackgroundColor=none;imageAspect=0;aspect=fixed;image=https://cdn1.iconfinder.com/data/icons/windows8_icons_iconpharm/26/data_backup.png;shadow=0;dashed=1;dashPattern=1 1;fontSize=12;strokeColor=#7EA6E0;strokeWidth=2;fillColor=#B5C1D1;" vertex="1" parent="1">
          <mxGeometry x="263" y="200" width="26" height="26" as="geometry" />
        </mxCell>
        <mxCell id="QleytlypI_foX-6YYafD-62" value="" style="rounded=1;whiteSpace=wrap;html=1;shadow=0;labelBackgroundColor=#FFFFFF;fontSize=13;fillColor=#f5f5f5;strokeColor=#666666;fontColor=#333333;dashed=1;strokeWidth=2;dashPattern=1 1;" vertex="1" parent="1">
          <mxGeometry x="218" y="334" width="60" height="60" as="geometry" />
        </mxCell>
        <mxCell id="QleytlypI_foX-6YYafD-6" value="" style="rounded=1;whiteSpace=wrap;html=1;fillColor=#f5f5f5;fontColor=#333333;shadow=0;arcSize=5;strokeColor=#A9C4EB;" vertex="1" parent="1">
          <mxGeometry x="477" y="80" width="316" height="140" as="geometry" />
        </mxCell>
        <mxCell id="QleytlypI_foX-6YYafD-2" value="&lt;span style=&quot;font-weight: 700 ; background-color: rgb(248 , 249 , 250)&quot;&gt;&lt;font style=&quot;font-size: 10px&quot;&gt;TERMINAL A&lt;/font&gt;&lt;/span&gt;" style="shape=image;html=1;verticalAlign=top;verticalLabelPosition=bottom;labelBackgroundColor=#ffffff;imageAspect=0;aspect=fixed;image=https://cdn4.iconfinder.com/data/icons/computer-and-technologies-1/800/pc-128.png;" vertex="1" parent="1">
          <mxGeometry x="508.6" y="96.47058823529412" width="72.47058823529412" height="72.47058823529412" as="geometry" />
        </mxCell>
        <mxCell id="QleytlypI_foX-6YYafD-4" value="&lt;span style=&quot;font-weight: 700 ; background-color: rgb(248 , 249 , 250)&quot;&gt;&lt;font style=&quot;font-size: 10px&quot;&gt;TERMINAL B&lt;/font&gt;&lt;/span&gt;" style="shape=image;html=1;verticalAlign=top;verticalLabelPosition=bottom;labelBackgroundColor=#ffffff;imageAspect=0;aspect=fixed;image=https://cdn4.iconfinder.com/data/icons/computer-and-technologies-1/800/pc-128.png;" vertex="1" parent="1">
          <mxGeometry x="596.3777777777777" y="96.47058823529412" width="72.47058823529412" height="72.47058823529412" as="geometry" />
        </mxCell>
        <mxCell id="QleytlypI_foX-6YYafD-5" value="&lt;span style=&quot;font-weight: 700 ; background-color: rgb(248 , 249 , 250)&quot;&gt;&lt;font style=&quot;font-size: 10px&quot;&gt;TERMINAL N...&lt;/font&gt;&lt;/span&gt;" style="shape=image;html=1;verticalAlign=top;verticalLabelPosition=bottom;labelBackgroundColor=#ffffff;imageAspect=0;aspect=fixed;image=https://cdn4.iconfinder.com/data/icons/computer-and-technologies-1/800/pc-128.png;" vertex="1" parent="1">
          <mxGeometry x="684.1555555555556" y="96.47058823529412" width="72.47058823529412" height="72.47058823529412" as="geometry" />
        </mxCell>
        <mxCell id="QleytlypI_foX-6YYafD-7" value="FILIAL 1" style="text;html=1;strokeColor=none;fillColor=none;align=center;verticalAlign=middle;whiteSpace=wrap;rounded=0;shadow=0;fontStyle=1;fontSize=13;labelBorderColor=none;labelBackgroundColor=#ffffff;" vertex="1" parent="1">
          <mxGeometry x="593.45" y="200" width="78.33" height="16.47" as="geometry" />
        </mxCell>
        <mxCell id="QleytlypI_foX-6YYafD-17" value="" style="group" vertex="1" connectable="0" parent="1">
          <mxGeometry x="478" y="230" width="316" height="221.71" as="geometry" />
        </mxCell>
        <mxCell id="QleytlypI_foX-6YYafD-18" value="" style="rounded=1;whiteSpace=wrap;html=1;fillColor=#f5f5f5;fontColor=#333333;shadow=0;arcSize=5;strokeColor=#A9C4EB;" vertex="1" parent="QleytlypI_foX-6YYafD-17">
          <mxGeometry width="316" height="140" as="geometry" />
        </mxCell>
        <mxCell id="QleytlypI_foX-6YYafD-19" value="&lt;span style=&quot;font-weight: 700 ; background-color: rgb(248 , 249 , 250)&quot;&gt;&lt;font style=&quot;font-size: 10px&quot;&gt;TERMINAL A&lt;/font&gt;&lt;/span&gt;" style="shape=image;html=1;verticalAlign=top;verticalLabelPosition=bottom;labelBackgroundColor=#ffffff;imageAspect=0;aspect=fixed;image=https://cdn4.iconfinder.com/data/icons/computer-and-technologies-1/800/pc-128.png;" vertex="1" parent="QleytlypI_foX-6YYafD-17">
          <mxGeometry x="31.6" y="16.470588235294116" width="72.47058823529412" height="72.47058823529412" as="geometry" />
        </mxCell>
        <mxCell id="QleytlypI_foX-6YYafD-20" value="&lt;span style=&quot;font-weight: 700 ; background-color: rgb(248 , 249 , 250)&quot;&gt;&lt;font style=&quot;font-size: 10px&quot;&gt;TERMINAL B&lt;/font&gt;&lt;/span&gt;" style="shape=image;html=1;verticalAlign=top;verticalLabelPosition=bottom;labelBackgroundColor=#ffffff;imageAspect=0;aspect=fixed;image=https://cdn4.iconfinder.com/data/icons/computer-and-technologies-1/800/pc-128.png;" vertex="1" parent="QleytlypI_foX-6YYafD-17">
          <mxGeometry x="119.37777777777778" y="16.470588235294116" width="72.47058823529412" height="72.47058823529412" as="geometry" />
        </mxCell>
        <mxCell id="QleytlypI_foX-6YYafD-21" value="&lt;span style=&quot;font-weight: 700 ; background-color: rgb(248 , 249 , 250)&quot;&gt;&lt;font style=&quot;font-size: 10px&quot;&gt;TERMINAL N...&lt;/font&gt;&lt;/span&gt;" style="shape=image;html=1;verticalAlign=top;verticalLabelPosition=bottom;labelBackgroundColor=#ffffff;imageAspect=0;aspect=fixed;image=https://cdn4.iconfinder.com/data/icons/computer-and-technologies-1/800/pc-128.png;" vertex="1" parent="QleytlypI_foX-6YYafD-17">
          <mxGeometry x="207.15555555555557" y="16.470588235294116" width="72.47058823529412" height="72.47058823529412" as="geometry" />
        </mxCell>
        <mxCell id="QleytlypI_foX-6YYafD-22" value="FILIAL 2" style="text;html=1;strokeColor=none;fillColor=none;align=center;verticalAlign=middle;whiteSpace=wrap;rounded=0;shadow=0;fontStyle=1;fontSize=13;labelBorderColor=none;labelBackgroundColor=#ffffff;" vertex="1" parent="QleytlypI_foX-6YYafD-17">
          <mxGeometry x="116.44999999999999" y="120" width="78.33" height="16.47" as="geometry" />
        </mxCell>
        <mxCell id="QleytlypI_foX-6YYafD-93" style="edgeStyle=orthogonalEdgeStyle;jumpStyle=none;orthogonalLoop=1;jettySize=auto;html=1;fontSize=12;fontColor=#000000;startArrow=none;startFill=0;endArrow=classicThin;endFill=1;strokeWidth=1;rounded=1;" edge="1" parent="1" source="QleytlypI_foX-6YYafD-65" target="QleytlypI_foX-6YYafD-54">
          <mxGeometry relative="1" as="geometry">
            <Array as="points">
              <mxPoint x="23" y="364" />
            </Array>
          </mxGeometry>
        </mxCell>
        <mxCell id="QleytlypI_foX-6YYafD-65" value="RECURSO INICIAL" style="text;html=1;fillColor=none;align=center;verticalAlign=middle;whiteSpace=wrap;rounded=1;shadow=0;labelBackgroundColor=#FFFFFF;fontSize=10;fontStyle=1;strokeColor=#CFCFCF;fontColor=#666666;" vertex="1" parent="1">
          <mxGeometry x="38" y="500" width="85" height="30" as="geometry" />
        </mxCell>
        <mxCell id="QleytlypI_foX-6YYafD-91" style="edgeStyle=orthogonalEdgeStyle;rounded=1;jumpStyle=none;orthogonalLoop=1;jettySize=auto;html=1;fontSize=12;fontColor=#000000;startArrow=none;startFill=0;endArrow=classicThin;endFill=1;strokeWidth=1;" edge="1" parent="1" source="QleytlypI_foX-6YYafD-67" target="QleytlypI_foX-6YYafD-56">
          <mxGeometry relative="1" as="geometry">
            <Array as="points">
              <mxPoint x="213" y="450" />
              <mxPoint x="178" y="450" />
            </Array>
          </mxGeometry>
        </mxCell>
        <mxCell id="QleytlypI_foX-6YYafD-92" style="edgeStyle=orthogonalEdgeStyle;rounded=1;jumpStyle=none;orthogonalLoop=1;jettySize=auto;html=1;entryX=0.5;entryY=1;entryDx=0;entryDy=0;fontSize=12;fontColor=#000000;startArrow=none;startFill=0;endArrow=classicThin;endFill=1;strokeWidth=1;" edge="1" parent="1" source="QleytlypI_foX-6YYafD-67" target="QleytlypI_foX-6YYafD-62">
          <mxGeometry relative="1" as="geometry">
            <Array as="points">
              <mxPoint x="213" y="450" />
              <mxPoint x="248" y="450" />
            </Array>
          </mxGeometry>
        </mxCell>
        <mxCell id="QleytlypI_foX-6YYafD-67" value="RECURSO ADICIONADO SOMENTE QUANDO NECESSÁRIO" style="text;html=1;fillColor=none;align=center;verticalAlign=middle;whiteSpace=wrap;rounded=1;shadow=0;labelBackgroundColor=#FFFFFF;fontSize=10;fontStyle=1;strokeColor=#CFCFCF;fontColor=#666666;" vertex="1" parent="1">
          <mxGeometry x="145.5" y="500" width="147.5" height="50" as="geometry" />
        </mxCell>
        <mxCell id="QleytlypI_foX-6YYafD-96" value="&lt;b&gt;INTERNET&lt;/b&gt;" style="html=1;verticalLabelPosition=bottom;align=center;labelBackgroundColor=#ffffff;verticalAlign=top;strokeWidth=2;shadow=0;dashed=0;shape=mxgraph.ios7.icons.globe;fontSize=12;fontColor=#000000;fillColor=none;strokeColor=#536E94;" vertex="1" parent="1">
          <mxGeometry x="362.5" y="285" width="30" height="30" as="geometry" />
        </mxCell>
        <mxCell id="QleytlypI_foX-6YYafD-102" style="edgeStyle=orthogonalEdgeStyle;rounded=1;jumpStyle=none;orthogonalLoop=1;jettySize=auto;html=1;entryX=1.064;entryY=0.52;entryDx=0;entryDy=0;entryPerimeter=0;fontSize=12;fontColor=#000000;startArrow=none;startFill=0;endArrow=none;endFill=0;strokeWidth=1;dashed=1;" edge="1" parent="1" source="QleytlypI_foX-6YYafD-18" target="QleytlypI_foX-6YYafD-96">
          <mxGeometry relative="1" as="geometry" />
        </mxCell>
      </root>
    </mxGraphModel>
  </diagram>
</mxfile>
